<svg xmlns="http://www.w3.org/2000/svg" viewBox="0 0 120 120" width="120" height="120">
  <defs>
    <radialGradient id="glow" cx="50%" cy="50%" r="50%">
      <stop offset="0%" stop-color="#3b82f6" stop-opacity="0.25"/>
      <stop offset="100%" stop-color="#3b82f6" stop-opacity="0"/>
    </radialGradient>
  </defs>

  <!-- glow -->
  <circle cx="60" cy="60" r="56" fill="url(#glow)"/>

  <!-- ring -->
  <circle cx="60" cy="60" r="44" fill="none" stroke="#3b82f6" stroke-width="1.5" stroke-opacity="0.5"/>

  <!-- main dot -->
  <circle cx="60" cy="60" r="36" fill="#3b82f6"/>

  <!-- comfyui logo (scaled from 24x24 viewBox to fit inside dot) -->
  <g transform="translate(60,60) scale(2.1) translate(-12,-12)" opacity="0.7">
    <path fill="#0d0d0d" d="M5.485 23.76c-.568 0-1.026-.207-1.325-.598-.307-.402-.387-.964-.22-1.54l.672-2.315a.605.605 0 00-.1-.536.622.622 0 00-.494-.243H2.085c-.568 0-1.026-.207-1.325-.598-.307-.403-.387-.964-.22-1.54l2.31-7.917.255-.87c.343-1.18 1.592-2.14 2.786-2.14h2.313c.276 0 .519-.18.595-.442l.764-2.633C9.906 1.208 11.155.249 12.35.249l4.945-.008h3.62c.568 0 1.027.206 1.325.597.307.402.387.964.22 1.54l-1.035 3.566c-.343 1.178-1.593 2.137-2.787 2.137l-4.956.01H11.37a.618.618 0 00-.594.441l-1.928 6.604a.605.605 0 00.1.537c.118.153.3.243.495.243l3.275-.006h3.61c.568 0 1.026.206 1.325.598.307.402.387.964.22 1.54l-1.036 3.565c-.342 1.179-1.592 2.138-2.786 2.138l-4.957.01h-3.61z"/>
  </g>

  <!-- specular highlight -->
  <circle cx="53" cy="53" r="10" fill="white" fill-opacity="0.12"/>
</svg>
